<svg width="180" height="180" viewBox="0 0 180 180" xmlns="http://www.w3.org/2000/svg" role="img" aria-labelledby="title desc">
  <title id="title">Trinity International School torch</title>
  <desc id="desc">A gold torch with a detailed flame on a dark background.</desc>
  <defs>
    <linearGradient id="gold" x1="0" x2="0" y1="0" y2="1">
      <stop offset="0%" stop-color="#f7d88b"/>
      <stop offset="50%" stop-color="#e1b35d"/>
      <stop offset="100%" stop-color="#b87b2a"/>
    </linearGradient>
    <linearGradient id="flame" x1="0" x2="0" y1="0" y2="1">
      <stop offset="0%" stop-color="#ffe9a9"/>
      <stop offset="40%" stop-color="#ffb347"/>
      <stop offset="100%" stop-color="#ff7b3f"/>
    </linearGradient>
    <filter id="shadow" x="-20%" y="-20%" width="140%" height="140%" color-interpolation-filters="sRGB">
      <feDropShadow dx="0" dy="8" stdDeviation="10" flood-color="#000" flood-opacity="0.25" />
    </filter>
  </defs>
  <g filter="url(#shadow)">
    <path fill="url(#flame)" d="M90 28c-6 10-9.5 20.5-9.5 29.5 0 10 5 19 13 23.5 9-4.5 13-13.5 13-23.5C106.5 48.5 102 38 96 28c6 12 19.5 18 19.5 32.5C115.5 75 103 88 90 94c-13-6-25.5-19-25.5-33.5C64.5 46 78 40 84 28Z"/>
    <rect x="80" y="96" width="20" height="50" rx="6" fill="url(#gold)"/>
    <rect x="70" y="142" width="40" height="10" rx="5" fill="url(#gold)"/>
    <rect x="66" y="156" width="48" height="10" rx="5" fill="url(#gold)"/>
    <path fill="url(#gold)" d="M68 96h44l-6 10H74z"/>
  </g>
</svg>
